<svg width="167mm" height="237mm" version="1.1" viewBox="0 0 167 237" xmlns="http://www.w3.org/2000/svg" xmlns:xlink="http://www.w3.org/1999/xlink">
 <rect width="167" height="237" fill="#fff"/>
 <rect transform="matrix(0 1 1 0 0 0)" x="92.5" y="3" width="141" height="161" fill="#def"/>
 <g fill="none" stroke-width="1">
 <path d="m164.3 92.7-161.3-.1" stroke="#000"/>
 <g stroke="#999"><path transform="matrix(0 1 1 0 0 0)" d="m23.7 87.5a42.6 51.4 0 0 1 12.5-36.4"/><path transform="matrix(0 1 1 0 0 0)" d="m160.8 87.5a68.8 68.8 0 0 1-3.3 21"/> <path d="m87.5 3v231" stroke-dasharray="3"/></g>
 <path id="a" d="m41.6 21.1 1.2-5 3.6 12.6-9.7-8.8z" fill="#f00"/>
 <use transform="rotate(12-868 541)" xlink:href="#a"/>
 <path d="m32.1 6.4 55.3 85.4 44 134.6" stroke="#f00"/></g>
 <g style="font-family:'Times New Roman';-inkscape-font-specification:'Times New Roman'" font-size="16px" font-style="italic">
 <text><tspan x="92" y="175">θ<tspan baseline-shift="sub" font-size="12px" font-style="normal">2</tspan></tspan>
<tspan x="57" y="20">θ<tspan baseline-shift="sub" font-size="12px" font-style="normal">1</tspan></tspan><tspan x="103" y="86">n<tspan baseline-shift="sub" font-size="12px" font-style="normal">1</tspan></tspan><tspan x="103" y="108">n<tspan baseline-shift="sub" font-size="12px" font-style="normal">2</tspan></tspan><tspan x="138" y="86">v<tspan baseline-shift="sub" font-size="12px" font-style="normal">1</tspan></tspan><tspan x="138" y="108">v<tspan baseline-shift="sub" font-size="12px" font-style="normal">2</tspan></tspan></text>
 <text font-size="10px" font-weight="bold" text-anchor="middle"><tspan x="43" y="90">поверхность</tspan><tspan x="43" y="101">раздела</tspan></text>
<text font-weight="bold"><tspan x="135" y="223">Q</tspan><tspan x="74" y="106">O</tspan></text>
 <text transform="matrix(0-1 1 0 0 0)"><tspan x="-56" y="95" font-size="10px" font-weight="bold">нормаль</tspan></text>
 <text><tspan x="27" y="34" font-weight="bold">P</tspan></text></g></svg>
